<?xml version="1.0" encoding="UTF-8"?>
<svg xmlns="http://www.w3.org/2000/svg" width="720" height="1280" viewBox="0 0 720 1280" role="img" aria-label="Dadooh: Recuperando a exibição" data-visual-system="c25-visible-state-ui.v1" data-layout-mode="portrait">
  <rect width="720" height="1280" fill="#090c10"/>
  <rect x="0" y="0" width="720" height="8" fill="#f59e0b"/>
  <rect x="0" y="1206" width="720" height="74" fill="#0d1116"/>
  <text x="48" y="70" font-family="Arial, DejaVu Sans, sans-serif" font-size="32" font-weight="700" fill="#f8fafc">Dadooh</text>
  <line x1="180" y1="48" x2="180" y2="82" stroke="#3a4652"/>
  <text x="206" y="68" font-family="Arial, DejaVu Sans, sans-serif" font-size="18" fill="#9aa4b2">Totem</text>

  <text x="48" y="150" font-family="Arial, DejaVu Sans, sans-serif" font-size="19" font-weight="700" fill="#f59e0b">RECUPERAÇÃO AUTOMÁTICA</text>
  <text x="48" y="232" font-family="Arial, DejaVu Sans, sans-serif" font-size="48" fill="#f8fafc" font-weight="700"><tspan x="48" dy="0">Recuperando a</tspan><tspan x="48" dy="54">exibição</tspan></text>
  <text x="48" y="354" font-family="Arial, DejaVu Sans, sans-serif" font-size="27" fill="#cbd5e1"><tspan x="48" dy="0">A exibição será reiniciada</tspan><tspan x="48" dy="37">automaticamente.</tspan></text>
  <text x="48" y="459" font-family="Arial, DejaVu Sans, sans-serif" font-size="21" fill="#9aa4b2"><tspan x="48" dy="0">Se a mensagem persistir, acione o suporte.</tspan></text>
  <rect x="48" y="517" width="96" height="5" rx="2" fill="#f59e0b"/>

  <rect x="48" y="680" width="624" height="442" rx="8" fill="#12171d" stroke="#2a333d"/>
  <rect x="48" y="680" width="6" height="442" rx="3" fill="#f59e0b"/>
  <circle cx="360" cy="846" r="78" fill="none" stroke="#3a4652" stroke-width="8"/>
  <circle cx="360" cy="846" r="78" fill="none" stroke="#f59e0b" stroke-width="8" stroke-dasharray="116 374" stroke-linecap="round" transform="rotate(-90 360 846)"/>
  <circle cx="360" cy="846" r="18" fill="#f59e0b"/>
  <text x="360" y="984" font-family="Arial, DejaVu Sans, sans-serif" font-size="25" font-weight="700" text-anchor="middle" fill="#f8fafc">Recuperando</text>
  <text x="360" y="1030" font-family="Arial, DejaVu Sans, sans-serif" font-size="19" text-anchor="middle" fill="#cbd5e1">Recuperação automática</text>

  <text x="48" y="1237" font-family="Arial, DejaVu Sans, sans-serif" font-size="18" fill="#cbd5e1">Recuperação automática</text>
  <text x="672" y="1237" font-family="Arial, DejaVu Sans, sans-serif" font-size="18" text-anchor="end" fill="#9aa4b2">Dadooh</text>
</svg>
